<svg width="281" height="275" viewBox="0 0 281 275" fill="none" xmlns="http://www.w3.org/2000/svg">
<path d="M198.54 211.178H151.863L99.9335 245.094C92.2317 250.136 81.8461 244.751 81.8461 235.584V211.178C46.8378 211.178 23.499 188.261 23.499 153.886V85.1354C23.499 50.7604 46.8378 27.8438 81.8461 27.8438H198.54C233.548 27.8438 256.887 50.7604 256.887 85.1354V153.886C256.887 188.261 233.548 211.178 198.54 211.178Z" fill="white" stroke="#4959E9" stroke-width="5.5" stroke-miterlimit="10" stroke-linecap="round" stroke-linejoin="round"/>
<path d="M140.193 130.167V127.761C140.193 119.969 145.095 115.844 149.996 112.521C154.78 109.313 159.564 105.188 159.564 97.6252C159.564 87.0836 150.929 78.604 140.193 78.604C129.457 78.604 120.822 87.0836 120.822 97.6252" fill="white"/>
<path d="M140.193 130.167V127.761C140.193 119.969 145.095 115.844 149.996 112.521C154.78 109.313 159.564 105.188 159.564 97.6252C159.564 87.0836 150.929 78.604 140.193 78.604C129.457 78.604 120.822 87.0836 120.822 97.6252" stroke="#4959E9" stroke-width="5.5" stroke-linecap="round" stroke-linejoin="round"/>
<path fill-rule="evenodd" clip-rule="evenodd" d="M140.141 157.552H140.246Z" fill="white"/>
<path d="M140.141 157.552H140.246" stroke="#4959E9" stroke-width="5.5" stroke-linecap="round" stroke-linejoin="round"/>
</svg>
